<svg xmlns="http://www.w3.org/2000/svg" viewBox="-105.34499816894531 108.51000022888184 785.6900024414062 332.57499980926514"><rect height="100%" width="100%" x="-105.34499816894531" y="108.51000022888184" fill="rgba(255, 255, 255, 1)"/> <svg xmlns="http://www.w3.org/2000/svg" id="Layer_2" viewBox="0 0 194.67999267578125 246.00999450683594" height="148" width="117.11978573830713" y="178.51000022888184" x="228.94" preserveAspectRatio="xMinYMin" style="overflow: visible;"><polygon class="cls-1" points="106.06 44.8 106.06 128.7 93.43 128.16 93.43 34.34 106.06 44.8" style="fill: #191919;"></polygon><path class="cls-1" d="m97.33,137.27c2.91,0,5.82.07,8.73.22v62.54l-12.63-10.46v-52.25c1.3-.04,2.6-.05,3.9-.05Z" style="fill: #191919;"></path><polygon class="cls-1" points="136.08 14.15 136.08 130 119 129.26 119 0 136.08 14.15" style="fill: #191919;"></polygon><path class="cls-1" d="m119,138.59c5.72.68,11.42,1.64,17.08,2.86v29.84l-17.08-14.15v-18.55Z" style="fill: #191919;"></path><polygon class="cls-1" points="57.33 91.77 57.33 131.35 53.14 133.14 53.14 88.31 57.33 91.77" style="fill: #191919;"></polygon><path class="cls-1" d="m53.14,142.72c1.39-.35,2.79-.68,4.19-.99v64.22l-4.19-3.47v-59.76Z" style="fill: #191919;"></path><polygon class="cls-1" points="79.29 72.72 79.29 127.55 70.29 127.16 70.29 65.27 79.29 72.72" style="fill: #191919;"></polygon><path class="cls-1" d="m70.29,139.31c2.99-.45,5.99-.83,9-1.13v107.83l-9-7.45v-99.25Z" style="fill: #191919;"></path><path class="cls-1" d="m194.68,156.51c-58.75-48.44-135.91-48.45-194.68,0,61.63-34.99,133.05-34.98,194.68,0Z" style="fill: #191919;"></path></svg> <svg y="339.7550001144409" viewBox="1.8899999856948853 -0.7699999809265137 645.6900024414062 31.329999923706055" x="-35.34499816894531" height="31.329999923706055" width="645.6900024414062" style="overflow: visible;"><g fill="#191919" fill-opacity="1" style=""><path d="M21.44 12.67L21.44 22.02Q20.96 22.43 20.10 22.83Q19.23 23.23 18.19 23.55Q17.15 23.87 16.05 24.06Q14.94 24.26 13.98 24.26L13.98 24.26Q11.20 24.26 8.98 23.39Q6.75 22.53 5.17 20.99Q3.58 19.46 2.74 17.38Q1.89 15.30 1.89 12.86L1.89 12.86Q1.89 9.98 2.83 7.70Q3.78 5.41 5.42 3.82Q7.07 2.24 9.22 1.42Q11.36 0.61 13.76 0.61L13.76 0.61Q15.78 0.61 17.50 1.09Q19.23 1.57 20.54 2.30L20.54 2.30L19.49 5.15Q18.85 4.77 17.90 4.45Q16.96 4.13 15.97 3.92Q14.98 3.71 14.11 3.71L14.11 3.71Q12.06 3.71 10.40 4.34Q8.74 4.96 7.55 6.13Q6.37 7.30 5.73 8.94Q5.09 10.59 5.09 12.64L5.09 12.64Q5.09 14.53 5.73 16.10Q6.37 17.66 7.55 18.80Q8.74 19.94 10.38 20.56Q12.03 21.18 14.02 21.18L14.02 21.18Q15.20 21.18 16.35 20.94Q17.50 20.70 18.34 20.26L18.34 20.26L18.34 15.65L13.73 15.65L13.73 12.67L21.44 12.67ZM38.27 17.25L38.27 17.25Q38.27 15.26 39.22 13.66Q40.16 12.06 41.82 11.14Q43.49 10.21 45.60 10.21L45.60 10.21Q47.78 10.21 49.41 11.14Q51.04 12.06 51.94 13.66Q52.83 15.26 52.83 17.25L52.83 17.25Q52.83 19.23 51.94 20.85Q51.04 22.46 49.39 23.39Q47.74 24.32 45.57 24.32L45.57 24.32Q43.46 24.32 41.81 23.44Q40.16 22.56 39.22 20.98Q38.27 19.39 38.27 17.25ZM41.25 17.28L41.25 17.28Q41.25 18.56 41.82 19.60Q42.40 20.64 43.38 21.25Q44.35 21.86 45.54 21.86L45.54 21.86Q46.78 21.86 47.76 21.25Q48.74 20.64 49.28 19.60Q49.82 18.56 49.82 17.28L49.82 17.28Q49.82 16 49.28 14.96Q48.74 13.92 47.76 13.30Q46.78 12.67 45.54 12.67L45.54 12.67Q44.32 12.67 43.34 13.31Q42.37 13.95 41.81 14.99Q41.25 16.03 41.25 17.28ZM69.66 24L69.66-0.77L72.64-0.77L72.64 24L69.66 24ZM95.97 24.32L95.97 24.32Q94.14 24.32 92.66 23.44Q91.17 22.56 90.30 20.94Q89.44 19.33 89.44 17.22L89.44 17.22Q89.44 15.01 90.35 13.44Q91.26 11.87 92.83 11.04Q94.40 10.21 96.35 10.21L96.35 10.21Q97.92 10.21 99.34 10.88Q100.77 11.55 101.57 12.74L101.57 12.74L101.44 13.79L101.44-0.77L104.38-0.77L104.38 24L101.41 24L101.41 20.70L101.73 21.54Q100.80 22.75 99.33 23.54Q97.86 24.32 95.97 24.32ZM96.90 21.79L96.90 21.79Q98.08 21.79 99.01 21.36Q99.94 20.93 100.54 20.16Q101.15 19.39 101.41 18.34L101.41 18.34L101.41 15.84Q101.15 14.88 100.50 14.16Q99.84 13.44 98.93 13.01Q98.02 12.58 96.90 12.58L96.90 12.58Q95.68 12.58 94.67 13.17Q93.66 13.76 93.06 14.78Q92.45 15.81 92.45 17.15L92.45 17.15Q92.45 18.46 93.06 19.50Q93.66 20.54 94.69 21.17Q95.71 21.79 96.90 21.79ZM130.43 24.32L130.43 24.32Q128.61 24.32 127.22 23.52Q125.82 22.72 124.99 21.50L124.99 21.50L125.34 20.58L125.34 24L122.37 24L122.37-0.77L125.31-0.77L125.31 13.79L125.22 12.67Q126.02 11.58 127.50 10.90Q128.99 10.21 130.82 10.21L130.82 10.21Q132.61 10.21 134.08 11.07Q135.55 11.94 136.43 13.49Q137.31 15.04 137.31 17.18L137.31 17.18Q137.31 19.42 136.37 21.02Q135.42 22.62 133.86 23.47Q132.29 24.32 130.43 24.32ZM129.82 21.79L129.82 21.79Q131.10 21.79 132.13 21.18Q133.15 20.58 133.73 19.54Q134.30 18.50 134.30 17.15L134.30 17.15Q134.30 15.87 133.71 14.83Q133.12 13.79 132.11 13.18Q131.10 12.58 129.82 12.58L129.82 12.58Q128.74 12.58 127.81 12.99Q126.88 13.41 126.24 14.13Q125.60 14.85 125.34 15.81L125.34 15.81L125.34 18.46Q125.60 19.42 126.21 20.18Q126.82 20.93 127.74 21.36Q128.67 21.79 129.82 21.79ZM160.29 24.32L160.29 24.32Q158.02 24.32 156.38 23.41Q154.75 22.50 153.87 20.91Q152.99 19.33 152.99 17.28L152.99 17.28Q152.99 15.33 153.98 13.73Q154.98 12.13 156.64 11.17Q158.30 10.21 160.35 10.21L160.35 10.21Q162.98 10.21 164.70 11.74Q166.43 13.28 167.04 15.97L167.04 15.97L156.13 19.81L155.42 18.05L164.38 14.78L163.74 15.20Q163.36 14.14 162.46 13.36Q161.57 12.58 160.13 12.58L160.13 12.58Q158.91 12.58 157.95 13.17Q156.99 13.76 156.45 14.78Q155.90 15.81 155.90 17.12L155.90 17.12Q155.90 18.50 156.48 19.54Q157.06 20.58 158.06 21.17Q159.07 21.76 160.35 21.76L160.35 21.76Q161.22 21.76 162.03 21.44Q162.85 21.12 163.55 20.61L163.55 20.61L164.93 22.82Q163.94 23.49 162.70 23.90Q161.47 24.32 160.29 24.32ZM183.58 10.75L186.24 10.75L186.53 14.59L186.37 14.08Q186.88 12.86 187.86 12.02Q188.83 11.17 189.90 10.70Q190.98 10.24 191.78 10.24L191.78 10.24L191.62 13.18Q190.11 13.09 188.98 13.76Q187.84 14.43 187.18 15.55Q186.53 16.67 186.53 17.95L186.53 17.95L186.53 24L183.58 24L183.58 10.75ZM214.21 30.56L214.21 30.56Q212.74 30.56 211.62 30.22Q210.50 29.89 209.58 29.28Q208.67 28.67 207.84 27.90L207.84 27.90L209.57 25.89Q210.62 26.88 211.71 27.42Q212.80 27.97 214.14 27.97L214.14 27.97Q215.65 27.97 216.69 27.47Q217.73 26.98 218.27 26.10Q218.82 25.22 218.82 24.06L218.82 24.06L218.85 20.48L219.10 21.06Q218.53 22.43 217.02 23.38Q215.52 24.32 213.38 24.32L213.38 24.32Q211.55 24.32 210.03 23.39Q208.51 22.46 207.60 20.88Q206.69 19.30 206.69 17.31L206.69 17.31Q206.69 15.23 207.65 13.65Q208.61 12.06 210.18 11.14Q211.74 10.21 213.60 10.21L213.60 10.21Q215.36 10.21 216.82 10.93Q218.27 11.65 218.94 12.77L218.94 12.77L218.78 13.31L219.10 10.75L221.82 10.75L221.82 24.10Q221.82 25.89 220.90 27.36Q219.97 28.83 218.27 29.70Q216.58 30.56 214.21 30.56ZM209.66 17.25L209.66 17.25Q209.66 18.53 210.27 19.58Q210.88 20.64 211.92 21.25Q212.96 21.86 214.24 21.86L214.24 21.86Q215.42 21.86 216.37 21.42Q217.31 20.99 217.95 20.24Q218.59 19.49 218.85 18.50L218.85 18.50L218.85 15.87Q218.56 14.91 217.89 14.19Q217.22 13.47 216.29 13.07Q215.36 12.67 214.24 12.67L214.24 12.67Q212.96 12.67 211.92 13.25Q210.88 13.82 210.27 14.86Q209.66 15.90 209.66 17.25ZM276.58 2.59L275.39 4.99Q274.21 4.38 272.80 3.94Q271.39 3.49 270.05 3.49L270.05 3.49Q268.19 3.49 267.09 4.35Q265.98 5.22 265.98 6.66L265.98 6.66Q265.98 7.74 266.69 8.50Q267.39 9.25 268.54 9.79Q269.70 10.34 270.94 10.82L270.94 10.82Q272.03 11.23 273.09 11.74Q274.14 12.26 274.99 13.02Q275.84 13.79 276.34 14.91Q276.83 16.03 276.83 17.70L276.83 17.70Q276.83 19.52 275.92 21.02Q275.01 22.53 273.31 23.39Q271.62 24.26 269.28 24.26L269.28 24.26Q267.74 24.26 266.35 23.90Q264.96 23.55 263.78 22.99Q262.59 22.43 261.66 21.82L261.66 21.82L263.04 19.39Q263.81 19.94 264.80 20.43Q265.79 20.93 266.88 21.23Q267.97 21.54 268.99 21.54L268.99 21.54Q270.08 21.54 271.15 21.14Q272.22 20.74 272.93 19.90Q273.63 19.07 273.63 17.70L273.63 17.70Q273.63 16.51 273.01 15.73Q272.38 14.94 271.36 14.38Q270.34 13.82 269.18 13.38L269.18 13.38Q268.10 12.96 266.98 12.46Q265.86 11.97 264.90 11.25Q263.94 10.53 263.36 9.47Q262.78 8.42 262.78 6.91L262.78 6.91Q262.78 5.09 263.66 3.73Q264.54 2.37 266.08 1.58Q267.62 0.80 269.60 0.74L269.60 0.74Q271.84 0.74 273.55 1.28Q275.26 1.82 276.58 2.59L276.58 2.59ZM299.62 24.32L299.62 24.32Q297.76 24.32 296.24 23.52Q294.72 22.72 293.84 21.17Q292.96 19.62 292.96 17.38L292.96 17.38Q292.96 15.17 293.89 13.55Q294.82 11.94 296.37 11.07Q297.92 10.21 299.78 10.21L299.78 10.21Q301.63 10.21 302.91 11.06Q304.19 11.90 304.86 13.06L304.86 13.06L304.67 13.57L304.96 10.75L307.71 10.75L307.71 24L304.74 24L304.74 20.54L305.06 21.31Q304.93 21.63 304.50 22.13Q304.06 22.62 303.34 23.14Q302.62 23.65 301.70 23.98Q300.77 24.32 299.62 24.32ZM300.42 21.86L300.42 21.86Q301.54 21.86 302.43 21.44Q303.33 21.02 303.92 20.27Q304.51 19.52 304.74 18.46L304.74 18.46L304.74 15.87Q304.48 14.91 303.84 14.19Q303.20 13.47 302.30 13.07Q301.41 12.67 300.32 12.67L300.32 12.67Q299.14 12.67 298.14 13.25Q297.15 13.82 296.56 14.85Q295.97 15.87 295.97 17.25L295.97 17.25Q295.97 18.53 296.58 19.58Q297.18 20.64 298.21 21.25Q299.23 21.86 300.42 21.86ZM325.66 24L325.66-0.77L328.64-0.77L328.64 24L325.66 24ZM352.74 24.32L352.74 24.32Q350.46 24.32 348.83 23.41Q347.20 22.50 346.32 20.91Q345.44 19.33 345.44 17.28L345.44 17.28Q345.44 15.33 346.43 13.73Q347.42 12.13 349.09 11.17Q350.75 10.21 352.80 10.21L352.80 10.21Q355.42 10.21 357.15 11.74Q358.88 13.28 359.49 15.97L359.49 15.97L348.58 19.81L347.87 18.05L356.83 14.78L356.19 15.20Q355.81 14.14 354.91 13.36Q354.02 12.58 352.58 12.58L352.58 12.58Q351.36 12.58 350.40 13.17Q349.44 13.76 348.90 14.78Q348.35 15.81 348.35 17.12L348.35 17.12Q348.35 18.50 348.93 19.54Q349.50 20.58 350.51 21.17Q351.52 21.76 352.80 21.76L352.80 21.76Q353.66 21.76 354.48 21.44Q355.30 21.12 356.00 20.61L356.00 20.61L357.38 22.82Q356.38 23.49 355.15 23.90Q353.92 24.32 352.74 24.32ZM379.74 24.26L379.74 24.26Q378.34 24.26 377.01 23.76Q375.68 23.26 374.82 22.27L374.82 22.27L376.06 20.54Q376.90 21.34 377.78 21.74Q378.66 22.14 379.52 22.14L379.52 22.14Q380.16 22.14 380.70 21.98Q381.25 21.82 381.58 21.46Q381.92 21.09 381.92 20.45L381.92 20.45Q381.92 19.74 381.46 19.33Q380.99 18.91 380.27 18.66Q379.55 18.40 378.75 18.18L378.75 18.18Q377.12 17.63 376.26 16.67Q375.39 15.71 375.39 14.34L375.39 14.34Q375.39 13.28 375.92 12.37Q376.45 11.46 377.49 10.88Q378.53 10.30 380.06 10.30L380.06 10.30Q381.44 10.30 382.53 10.64Q383.62 10.98 384.58 11.74L384.58 11.74L383.39 13.60Q382.82 12.99 382.02 12.70Q381.22 12.42 380.58 12.38L380.58 12.38Q380.03 12.35 379.54 12.54Q379.04 12.74 378.72 13.09Q378.40 13.44 378.40 13.92L378.40 13.92Q378.40 14.59 378.85 15.01Q379.30 15.42 380.02 15.66Q380.74 15.90 381.44 16.16L381.44 16.16Q382.43 16.45 383.20 16.93Q383.97 17.41 384.43 18.11Q384.90 18.82 384.90 19.87L384.90 19.87Q384.90 21.06 384.34 22.06Q383.78 23.07 382.64 23.66Q381.50 24.26 379.74 24.26ZM408.70 8L420.77 24Q420.51 24 419.92 24Q419.33 24 418.70 24Q418.08 24 417.63 24Q417.18 24 417.18 24L417.18 24L406.08 9.31Q405.79 8.86 405.41 8.19Q405.02 7.52 404.75 6.70Q404.48 5.89 404.48 5.02L404.48 5.02Q404.48 3.65 405.15 2.45Q405.82 1.25 407.09 0.51Q408.35-0.22 410.18-0.22L410.18-0.22Q412.06-0.22 413.55 0.51Q415.04 1.25 416.00 2.24L416.00 2.24L414.43 4.32Q413.47 3.42 412.53 2.90Q411.58 2.37 410.66 2.37L410.66 2.37Q409.25 2.37 408.46 3.22Q407.68 4.06 407.68 5.25L407.68 5.25Q407.68 5.82 407.92 6.43Q408.16 7.04 408.40 7.46Q408.64 7.87 408.70 8L408.70 8ZM408.99 10.43L409.06 12.86Q408.16 12.86 407.30 13.22Q406.43 13.57 405.76 14.18Q405.09 14.78 404.69 15.60Q404.29 16.42 404.29 17.34L404.29 17.34Q404.29 18.59 404.94 19.54Q405.60 20.48 406.70 21.01Q407.81 21.54 409.12 21.54L409.12 21.54Q410.34 21.54 411.26 21.17Q412.19 20.80 412.86 20.18Q413.54 19.55 413.86 18.82L413.86 18.82L415.84 20.54Q414.98 22.14 413.17 23.23Q411.36 24.32 408.74 24.32L408.74 24.32Q406.56 24.32 404.83 23.42Q403.10 22.53 402.10 20.99Q401.09 19.46 401.09 17.50L401.09 17.50Q401.09 16 401.76 14.72Q402.43 13.44 403.57 12.50Q404.70 11.55 406.10 11.01Q407.49 10.46 408.99 10.43L408.99 10.43ZM413.95 18.62L417.09 10.43L419.94 10.43L416.19 20.03L413.95 18.62ZM439.33 24L436.29 24L446.40-0.10L446.59-0.10L456.67 24L453.12 24L445.57 4.77L447.78 3.33L439.33 24ZM441.31 17.92L442.21 15.23L450.82 15.23L451.84 17.92L441.31 17.92ZM478.14 24.32L478.14 24.32Q476.32 24.32 474.83 23.44Q473.34 22.56 472.48 20.94Q471.62 19.33 471.62 17.22L471.62 17.22Q471.62 15.01 472.53 13.44Q473.44 11.87 475.01 11.04Q476.58 10.21 478.53 10.21L478.53 10.21Q480.10 10.21 481.52 10.88Q482.94 11.55 483.74 12.74L483.74 12.74L483.62 13.79L483.62-0.77L486.56-0.77L486.56 24L483.58 24L483.58 20.70L483.90 21.54Q482.98 22.75 481.50 23.54Q480.03 24.32 478.14 24.32ZM479.07 21.79L479.07 21.79Q480.26 21.79 481.18 21.36Q482.11 20.93 482.72 20.16Q483.33 19.39 483.58 18.34L483.58 18.34L483.58 15.84Q483.33 14.88 482.67 14.16Q482.02 13.44 481.10 13.01Q480.19 12.58 479.07 12.58L479.07 12.58Q477.86 12.58 476.85 13.17Q475.84 13.76 475.23 14.78Q474.62 15.81 474.62 17.15L474.62 17.15Q474.62 18.46 475.23 19.50Q475.84 20.54 476.86 21.17Q477.89 21.79 479.07 21.79ZM510.08 24.38L509.92 24.38L502.56 10.75L506.08 10.75L511.07 21.28L509.25 21.22L513.82 10.75L517.15 10.75L510.08 24.38ZM533.15 24L533.15 10.75L536.13 10.75L536.13 24L533.15 24ZM532.93 5.95L532.93 5.95Q532.93 5.25 533.49 4.77Q534.05 4.29 534.72 4.29L534.72 4.29Q535.39 4.29 535.92 4.77Q536.45 5.25 536.45 5.95L536.45 5.95Q536.45 6.69 535.92 7.15Q535.39 7.62 534.72 7.62L534.72 7.62Q534.05 7.62 533.49 7.14Q532.93 6.66 532.93 5.95ZM557.79 24.26L557.79 24.26Q556.38 24.26 555.06 23.76Q553.73 23.26 552.86 22.27L552.86 22.27L554.11 20.54Q554.94 21.34 555.82 21.74Q556.70 22.14 557.57 22.14L557.57 22.14Q558.21 22.14 558.75 21.98Q559.30 21.82 559.63 21.46Q559.97 21.09 559.97 20.45L559.97 20.45Q559.97 19.74 559.50 19.33Q559.04 18.91 558.32 18.66Q557.60 18.40 556.80 18.18L556.80 18.18Q555.17 17.63 554.30 16.67Q553.44 15.71 553.44 14.34L553.44 14.34Q553.44 13.28 553.97 12.37Q554.50 11.46 555.54 10.88Q556.58 10.30 558.11 10.30L558.11 10.30Q559.49 10.30 560.58 10.64Q561.66 10.98 562.62 11.74L562.62 11.74L561.44 13.60Q560.86 12.99 560.06 12.70Q559.26 12.42 558.62 12.38L558.62 12.38Q558.08 12.35 557.58 12.54Q557.09 12.74 556.77 13.09Q556.45 13.44 556.45 13.92L556.45 13.92Q556.45 14.59 556.90 15.01Q557.34 15.42 558.06 15.66Q558.78 15.90 559.49 16.16L559.49 16.16Q560.48 16.45 561.25 16.93Q562.02 17.41 562.48 18.11Q562.94 18.82 562.94 19.87L562.94 19.87Q562.94 21.06 562.38 22.06Q561.82 23.07 560.69 23.66Q559.55 24.26 557.79 24.26ZM578.75 17.25L578.75 17.25Q578.75 15.26 579.70 13.66Q580.64 12.06 582.30 11.14Q583.97 10.21 586.08 10.21L586.08 10.21Q588.26 10.21 589.89 11.14Q591.52 12.06 592.42 13.66Q593.31 15.26 593.31 17.25L593.31 17.25Q593.31 19.23 592.42 20.85Q591.52 22.46 589.87 23.39Q588.22 24.32 586.05 24.32L586.05 24.32Q583.94 24.32 582.29 23.44Q580.64 22.56 579.70 20.98Q578.75 19.39 578.75 17.25ZM581.73 17.28L581.73 17.28Q581.73 18.56 582.30 19.60Q582.88 20.64 583.86 21.25Q584.83 21.86 586.02 21.86L586.02 21.86Q587.26 21.86 588.24 21.25Q589.22 20.64 589.76 19.60Q590.30 18.56 590.30 17.28L590.30 17.28Q590.30 16 589.76 14.96Q589.22 13.92 588.24 13.30Q587.26 12.67 586.02 12.67L586.02 12.67Q584.80 12.67 583.82 13.31Q582.85 13.95 582.29 14.99Q581.73 16.03 581.73 17.28ZM610.14 10.75L612.80 10.75L613.09 14.59L612.93 14.08Q613.44 12.86 614.42 12.02Q615.39 11.17 616.46 10.70Q617.54 10.24 618.34 10.24L618.34 10.24L618.18 13.18Q616.67 13.09 615.54 13.76Q614.40 14.43 613.74 15.55Q613.09 16.67 613.09 17.95L613.09 17.95L613.09 24L610.14 24L610.14 10.75ZM639.04 30.37L636.10 30.37L644.83 10.75L647.58 10.75L639.04 30.37ZM641.70 22.59L639.36 24.10L632.99 10.75L636.35 10.75L641.70 22.59Z" transform="translate(0, 0)"></path></g></svg></svg>